<svg xmlns="http://www.w3.org/2000/svg" width="22" height="25.143" viewBox="0 0 22 25.143"><defs><style>.a{fill:#fff;opacity:0.5;}</style></defs><path class="a" d="M14.6,11.943a1.287,1.287,0,1,1-1.282-1.4A1.339,1.339,0,0,1,14.6,11.943Zm-5.871-1.4a1.4,1.4,0,0,0,0,2.791,1.339,1.339,0,0,0,1.282-1.4A1.331,1.331,0,0,0,8.725,10.547ZM22,2.59V25.143c-3.167-2.8-2.154-1.872-5.833-5.293l.666,2.326H2.577A2.583,2.583,0,0,1,0,19.586v-17A2.583,2.583,0,0,1,2.577,0H19.423A2.583,2.583,0,0,1,22,2.59ZM18.417,14.507a16.835,16.835,0,0,0-1.81-7.329,6.217,6.217,0,0,0-3.533-1.32l-.176.2a8.367,8.367,0,0,1,3.13,1.6,10.682,10.682,0,0,0-9.391-.365c-.465.214-.742.365-.742.365A8.481,8.481,0,0,1,9.2,6.009l-.126-.151a6.217,6.217,0,0,0-3.533,1.32,16.835,16.835,0,0,0-1.81,7.329,4.558,4.558,0,0,0,3.834,1.911s.465-.566.842-1.043a3.91,3.91,0,0,1-2.2-1.483c.185.129.49.3.515.314a9.164,9.164,0,0,0,7.845.44,7.194,7.194,0,0,0,1.446-.742,3.967,3.967,0,0,1-2.275,1.5c.377.478.83,1.018.83,1.018A4.6,4.6,0,0,0,18.417,14.507Z"/></svg>