<svg xmlns="http://www.w3.org/2000/svg" width="18.857" height="22" viewBox="0 0 18.857 22"><defs><style>.a{fill:#fff;opacity:0.5;}</style></defs><path class="a" d="M137.538,77.067H122.61a.786.786,0,0,0-.786.786V80.21h-1.571a.786.786,0,0,0-.786.786V98.281a.786.786,0,0,0,.786.786H134.4a.786.786,0,0,0,.786-.786V97.5h2.357a.786.786,0,0,0,.786-.786V77.853A.786.786,0,0,0,137.538,77.067Zm-6.286,18.071H123.4a.786.786,0,1,1,0-1.571h7.857a.786.786,0,0,1,0,1.571Zm0-3.143H123.4a.786.786,0,1,1,0-1.571h7.857a.786.786,0,0,1,0,1.571Zm0-3.143H123.4a.786.786,0,1,1,0-1.571h7.857a.786.786,0,0,1,0,1.571Zm0-4.714V82.892l1.246,1.246Zm5.5,11.786h-1.571v-11a.8.8,0,0,0-.231-.556l-3.929-3.929a.8.8,0,0,0-.555-.229H123.4V78.638h13.357Z" transform="translate(-119.467 -77.067)"/></svg>