<svg xmlns="http://www.w3.org/2000/svg" xmlns:xlink="http://www.w3.org/1999/xlink" width="20.152" height="26.684" viewBox="0 0 20.152 26.684"><defs><style>.a{fill:#fff;stroke:#0d163f;stroke-width:0.4px;}.b{opacity:0.44;}.c{clip-path:url(#a);}</style><clipPath id="a"><rect class="a" width="20.152" height="26.684"/></clipPath></defs><g class="b" transform="translate(-815 -348)"><g transform="translate(815 348)"><g class="c" transform="translate(0)"><path class="a" d="M816.513,362.446l9.173,3.836a.836.836,0,0,0,.643,0l9.173-3.836a.834.834,0,0,0,.357-1.254l-9.173-12.842a.833.833,0,0,0-1.357,0l-9.173,12.842a.834.834,0,0,0,.357,1.254Zm10.328,1.814V351.436l7.053,9.874Zm-1.668-12.823v12.823l-7.053-2.949Zm0,0" transform="translate(-815.932 -348)"/><path class="a" d="M835.882,589.175a.84.84,0,0,0-1.026-.323l-8.851,3.7-8.851-3.7a.834.834,0,0,0-.88,1.388l9.173,8.284a.833.833,0,0,0,1.117,0l9.173-8.284a.834.834,0,0,0,.146-1.066ZM826,596.783l-4.994-4.509,4.672,1.953a.832.832,0,0,0,.643,0L831,592.274,826,596.783Zm0,0" transform="translate(-815.928 -572.056)"/></g></g></g></svg>