<svg xmlns="http://www.w3.org/2000/svg" width="22" height="21.455" viewBox="0 0 22 21.455"><defs><style>.a{fill:#fff;opacity:0.5;}</style></defs><path class="a" d="M11,.445A11,11,0,0,0,7.521,21.882c.55.1.752-.237.752-.529,0-.261-.009-.953-.014-1.87-3.06.664-3.705-1.476-3.705-1.476A2.916,2.916,0,0,0,3.33,16.4c-1-.682.077-.668.077-.668a2.306,2.306,0,0,1,1.685,1.133,2.344,2.344,0,0,0,3.2.915,2.345,2.345,0,0,1,.7-1.471c-2.443-.275-5.01-1.221-5.01-5.436A4.244,4.244,0,0,1,5.114,7.919a3.911,3.911,0,0,1,.1-2.911s.921-.3,3.025,1.128a10.371,10.371,0,0,1,5.5,0c2.09-1.423,3.011-1.128,3.011-1.128a4.019,4.019,0,0,1,.11,2.911,4.261,4.261,0,0,1,1.127,2.952c0,4.226-2.571,5.156-5.019,5.427a2.634,2.634,0,0,1,.743,2.035c0,1.472-.014,2.655-.014,3.012,0,.289.193.632.756.522A10.986,10.986,0,0,0,11,.445" transform="translate(0 -0.445)"/></svg>