<svg width="584" height="33" viewBox="0 0 584 33" fill="none" xmlns="http://www.w3.org/2000/svg">
<path d="M287.649 32.4289H249.582C245.511 32.4289 241.606 30.7779 238.727 27.839C235.848 24.9 234.23 20.914 234.23 16.7578C234.23 12.6016 235.848 8.61554 238.727 5.67664C241.606 2.73773 245.511 1.08667 249.582 1.08667H287.649C291.72 1.08667 295.625 2.73773 298.504 5.67664C301.383 8.61554 303 12.6016 303 16.7578C303 20.914 301.383 24.9 298.504 27.839C295.625 30.7779 291.72 32.4289 287.649 32.4289ZM249.582 8.24384C247.393 8.27862 245.305 9.19081 243.769 10.7835C242.233 12.3762 241.372 14.5217 241.372 16.7568C241.372 18.9919 242.233 21.1373 243.769 22.73C245.305 24.3227 247.393 25.2349 249.582 25.2697H287.649C289.838 25.2349 291.926 24.3227 293.462 22.73C294.998 21.1373 295.859 18.9919 295.859 16.7568C295.859 14.5217 294.998 12.3762 293.462 10.7835C291.926 9.19081 289.838 8.27862 287.649 8.24384H249.582Z" fill="white"/>
<path d="M206.278 32.4288H161.98C161.05 32.4288 160.158 32.0517 159.5 31.3804C158.843 30.7091 158.473 29.7986 158.473 28.8492C158.473 27.8998 158.843 26.9893 159.5 26.318C160.158 25.6467 161.05 25.2696 161.98 25.2696H206.278C206.887 25.222 207.456 24.9414 207.871 24.484C208.286 24.0265 208.517 23.426 208.517 22.8024C208.517 22.1789 208.286 21.5783 207.871 21.1209C207.456 20.6634 206.887 20.3828 206.278 20.3353H167.587C165.086 20.3353 162.688 19.321 160.919 17.5157C159.151 15.7104 158.157 13.2619 158.157 10.7089C158.157 8.15578 159.151 5.70726 160.919 3.90196C162.688 2.09666 165.086 1.08246 167.587 1.08246H211.886C212.816 1.08246 213.708 1.4596 214.365 2.1309C215.023 2.80221 215.392 3.7127 215.392 4.66207C215.392 5.61144 215.023 6.52193 214.365 7.19324C213.708 7.86455 212.816 8.24169 211.886 8.24169H167.587C166.981 8.29237 166.415 8.57416 166.003 9.03106C165.59 9.48795 165.361 10.0865 165.361 10.7078C165.361 11.3291 165.59 11.9277 166.003 12.3846C166.415 12.8415 166.981 13.1233 167.587 13.174H206.278C208.779 13.174 211.178 14.1882 212.946 15.9935C214.715 17.7988 215.708 20.2473 215.708 22.8004C215.708 25.3534 214.715 27.802 212.946 29.6073C211.178 31.4125 208.779 32.4268 206.278 32.4268V32.4288Z" fill="white"/>
<path d="M136.51 32.4289C135.58 32.4284 134.688 32.051 134.031 31.3797C133.374 30.7085 133.005 29.7983 133.005 28.8493V4.66422C133.005 3.7154 133.374 2.80543 134.031 2.13451C134.689 1.46359 135.58 1.08667 136.51 1.08667C137.439 1.08667 138.33 1.46359 138.988 2.13451C139.645 2.80543 140.014 3.7154 140.014 4.66422V28.8493C140.014 29.3193 139.924 29.7847 139.748 30.219C139.572 30.6533 139.314 31.0479 138.988 31.3804C138.663 31.7128 138.276 31.9765 137.851 32.1564C137.426 32.3363 136.97 32.4289 136.51 32.4289Z" fill="white"/>
<path d="M113.341 32.5134C104.453 32.5134 100.267 25.0902 96.575 18.5414C92.939 12.0811 90.3979 8.15924 85.8852 8.15924C81.3726 8.15924 78.8355 12.077 75.1915 18.5434C71.501 25.0902 67.3136 32.5134 58.4257 32.5134C49.5378 32.5134 45.3484 25.0902 41.6599 18.5434C38.024 12.0811 35.4788 8.15924 30.9662 8.15924C26.4536 8.15924 23.9145 12.077 20.2725 18.5434C16.582 25.0902 12.3946 32.5134 3.50667 32.5134C2.57664 32.5134 1.68471 32.1363 1.02708 31.465C0.369451 30.7937 0 29.8832 0 28.9338C0 27.9844 0.369451 27.0739 1.02708 26.4026C1.68471 25.7313 2.57664 25.3542 3.50667 25.3542C8.02131 25.3542 10.5584 21.4364 14.2004 14.97C17.8909 8.42317 22.0783 1 30.9662 1C39.8541 1 44.0435 8.42317 47.732 14.97C51.3679 21.4323 53.9131 25.3542 58.4257 25.3542C62.9383 25.3542 65.4734 21.4364 69.1154 14.9721C72.8079 8.42317 76.9933 1 85.8812 1C94.7691 1 98.9545 8.42317 102.647 14.9721C106.283 21.4323 108.824 25.3542 113.337 25.3542C114.267 25.3542 115.159 25.7313 115.816 26.4026C116.474 27.0739 116.843 27.9844 116.843 28.9338C116.843 29.8832 116.474 30.7937 115.816 31.465C115.159 32.1363 114.267 32.5134 113.337 32.5134H113.341Z" fill="white"/>
<path d="M388.223 5.51261H388.5L398.384 19.2717H378.246L388.223 5.51261ZM357 32H368.916L375.106 23.5294H401.433L407.622 32H420L394.597 0H382.311L357 32Z" fill="white"/>
<path d="M552.223 5.51261H552.5L562.384 19.2717H542.246L552.223 5.51261ZM521 32H532.916L539.106 23.5294H565.433L571.622 32H584L558.597 0H546.311L521 32Z" fill="white"/>
<path d="M439 32H450.081V7.30532H450.267L468.704 32H478.296L496.733 7.30532H496.919V32H508V0H491.798L473.919 25.0532H473.733L455.389 0H439V32Z" fill="white"/>
</svg>
