<svg xmlns="http://www.w3.org/2000/svg" width="150" height="15.283" viewBox="0 0 150 15.283"><defs><style>.a{fill:#fff;}</style></defs><g transform="translate(-12.728 -14.072)"><path class="a" d="M722.775,29.511H703.93a7.6,7.6,0,0,1,0-15.2h18.845a7.6,7.6,0,0,1,0,15.2ZM703.93,17.782a4.129,4.129,0,0,0,0,8.257h18.845a4.129,4.129,0,0,0,0-8.257Z" transform="translate(-567.643 -0.197)"/><path class="a" d="M498.066,29.511h-21.93a1.736,1.736,0,0,1,0-3.472h21.93a1.2,1.2,0,0,0,0-2.393H478.912a4.668,4.668,0,0,1,0-9.337h21.93a1.736,1.736,0,0,1,0,3.472h-21.93a1.2,1.2,0,0,0,0,2.392h19.154a4.668,4.668,0,0,1,0,9.337Z" transform="translate(-383.217 -0.197)"/><path class="a" d="M402.361,29.511a1.736,1.736,0,0,1-1.735-1.736V16.046a1.735,1.735,0,1,1,3.47,0V27.775A1.735,1.735,0,0,1,402.361,29.511Z" transform="translate(-322.051 -0.197)"/><path class="a" d="M68.84,29.355c-4.4,0-6.472-3.6-8.3-6.776-1.8-3.133-3.058-5.035-5.292-5.035s-3.49,1.9-5.294,5.036c-1.827,3.175-3.9,6.775-8.3,6.775s-6.474-3.6-8.3-6.775c-1.8-3.134-3.06-5.036-5.294-5.036s-3.491,1.9-5.294,5.036c-1.827,3.175-3.9,6.775-8.3,6.775a1.736,1.736,0,0,1,0-3.472c2.235,0,3.491-1.9,5.294-5.036,1.827-3.175,3.9-6.775,8.3-6.775s6.474,3.6,8.3,6.775c1.8,3.134,3.06,5.036,5.294,5.036s3.489-1.9,5.292-5.035c1.828-3.176,3.9-6.776,8.3-6.776s6.472,3.6,8.3,6.776c1.8,3.133,3.058,5.035,5.292,5.035a1.736,1.736,0,0,1,0,3.472Z" transform="translate(0 0)"/></g></svg>