<svg xmlns="http://www.w3.org/2000/svg" width="55.33" height="55.3" viewBox="0 0 55.33 55.3">
    <defs>
        <style>.a{fill:#fff;stroke-width:1px;}</style>
    </defs>
    <g transform="translate(0.68 0.65)">
        <path class="a" d="M49.254,181H1.582a1.582,1.582,0,0,0-1.119,2.7l7.49,7.49L9.3,211.48a4.758,4.758,0,0,0,4.736,4.43H36.687a4.732,4.732,0,0,0,4.723-4.274l2.737-27.472h5.107a1.584,1.584,0,0,1,1.582,1.582V198.4a1.582,1.582,0,1,0,3.164,0V185.746A4.751,4.751,0,0,0,49.254,181ZM38.262,211.322a1.577,1.577,0,0,1-1.574,1.425H14.035a1.586,1.586,0,0,1-1.578-1.476l-1.385-20.882a1.583,1.583,0,0,0-.46-1.014L5.4,184.164H40.968Z" transform="translate(0 -161.91)" />
        <path class="a" d="M211.582,304.164h3.164a1.582,1.582,0,0,0,0-3.164h-3.164a1.582,1.582,0,0,0,0,3.164Z" transform="translate(-187.852 -269.254)" />
        <path class="a" d="M211.582,244.164h3.164a1.582,1.582,0,0,0,0-3.164h-3.164a1.582,1.582,0,0,0,0,3.164Z" transform="translate(-187.852 -215.582)" />
        <path class="a" d="M211.582,364.164h3.164a1.582,1.582,0,0,0,0-3.164h-3.164a1.582,1.582,0,0,0,0,3.164Z" transform="translate(-187.852 -322.926)" />
        <path class="a" d="M211.582,424.164h3.164a1.582,1.582,0,0,0,0-3.164h-3.164a1.582,1.582,0,0,0,0,3.164Z" transform="translate(-187.852 -376.598)" />
        <path class="a" d="M186.328,15.926a6.413,6.413,0,0,0,6.328-6.434c0-1.445-.874-3.363-2.671-5.862-1.222-1.7-2.429-3.048-2.48-3.105a1.582,1.582,0,0,0-2.355,0c-.051.057-1.258,1.405-2.48,3.105-1.8,2.5-2.671,4.416-2.671,5.862A6.414,6.414,0,0,0,186.328,15.926Zm0-11.893c1.681,2.108,3.165,4.48,3.165,5.46a3.166,3.166,0,1,1-6.328,0C183.164,8.484,184.651,6.129,186.327,4.032Z" transform="translate(-161.016)" />
    </g>
</svg>