<svg version="1.1" id="Capa_1" xmlns="http://www.w3.org/2000/svg" xmlns:xlink="http://www.w3.org/1999/xlink" x="0px" y="0px" width="94px" height="94px" viewBox="0 0 94 94" style="enable-background:new 0 0 94 94;" xml:space="preserve">
<g>
	<path d="M89,0H5C2.239,0,0,2.239,0,5v84c0,2.761,2.239,5,5,5h84c2.762,0,5-2.239,5-5V5C94,2.239,91.762,0,89,0z M85.874,23.302   c-2.122,3.177-4.752,5.922-7.817,8.164c0.024,0.616,0.036,1.233,0.036,1.855c0,22.315-16.979,45.396-45.396,45.396   c-8.687,0-17.144-2.479-24.458-7.169c-0.152-0.097-0.217-0.286-0.155-0.456c0.061-0.169,0.234-0.273,0.409-0.254   c1.229,0.146,2.482,0.219,3.729,0.219c6.758,0,13.156-2.089,18.567-6.053c-6.487-0.547-12.062-4.938-14.068-11.199   c-0.041-0.131-0.011-0.271,0.08-0.375c0.09-0.103,0.229-0.146,0.362-0.123c1.797,0.342,3.624,0.362,5.387,0.078   c-6.69-2.08-11.393-8.346-11.393-15.481l0.002-0.208c0.003-0.136,0.077-0.26,0.193-0.326c0.118-0.068,0.264-0.069,0.381-0.003   c1.743,0.968,3.677,1.591,5.655,1.828c-3.844-3.064-6.102-7.709-6.102-12.678c0-2.867,0.76-5.686,2.194-8.148   c0.064-0.109,0.178-0.182,0.305-0.19c0.127-0.013,0.25,0.042,0.329,0.142c7.87,9.651,19.444,15.595,31.821,16.358   c-0.208-1.04-0.312-2.11-0.312-3.191c0-8.936,7.271-16.205,16.206-16.205c4.396,0,8.639,1.806,11.681,4.96   c3.432-0.699,6.697-1.96,9.715-3.75c0.139-0.082,0.312-0.069,0.438,0.03c0.125,0.101,0.176,0.268,0.126,0.421   c-1.021,3.199-3.018,5.989-5.696,8.004c2.523-0.439,4.974-1.182,7.302-2.214c0.157-0.072,0.342-0.027,0.453,0.104   C85.959,22.97,85.971,23.158,85.874,23.302z"/>
</g>
</svg>