<svg xmlns="http://www.w3.org/2000/svg" width="22" height="22" viewBox="0 0 22 22"><defs><style>.a{fill:#fff;opacity:0.5;}</style></defs><path class="a" d="M19.643,2.25H2.357A2.358,2.358,0,0,0,0,4.607V21.893A2.358,2.358,0,0,0,2.357,24.25H19.643A2.358,2.358,0,0,0,22,21.893V4.607A2.358,2.358,0,0,0,19.643,2.25Zm-2.4,7.8c.01.137.01.28.01.417a9.1,9.1,0,0,1-9.163,9.163,9.121,9.121,0,0,1-4.945-1.444,6.785,6.785,0,0,0,.776.039,6.457,6.457,0,0,0,4-1.375,3.225,3.225,0,0,1-3.01-2.234,3.471,3.471,0,0,0,1.454-.059,3.221,3.221,0,0,1-2.578-3.163v-.039a3.219,3.219,0,0,0,1.454.408A3.214,3.214,0,0,1,3.8,9.081a3.18,3.18,0,0,1,.437-1.625,9.145,9.145,0,0,0,6.639,3.369,3.228,3.228,0,0,1,5.5-2.942,6.311,6.311,0,0,0,2.043-.776A3.212,3.212,0,0,1,17,8.879a6.409,6.409,0,0,0,1.856-.5A6.779,6.779,0,0,1,17.242,10.048Z" transform="translate(0 -2.25)"/></svg>