<svg xmlns="http://www.w3.org/2000/svg" xmlns:xlink="http://www.w3.org/1999/xlink" width="48" height="50" viewBox="0 0 48 50">
    <defs>
        <style>.a{fill:#fff;}.b{clip-path:url(#a);}</style>
        <clipPath id="a">
            <rect class="a" width="48" height="50" />
        </clipPath>
    </defs>
    <g class="b">
        <path class="a" d="M824.724,358.338a.778.778,0,0,0-.544-.608c-.764-.247-4.182.521-7.314,1.644a37.985,37.985,0,0,0-6.518,3.027c2.537-3,6.192-6.589,13.7-11.712h0a1.761,1.761,0,0,0,.543-1.848c-.067-.147-.456-.858-1.549-.446a44.44,44.44,0,0,0-16.615,11.318,26.378,26.378,0,0,0,1.315-9.718,1.809,1.809,0,0,0-1.487-1.984,1.746,1.746,0,0,0-1.853,1.375l0,.018a44.871,44.871,0,0,1-4.978,12.412,39.265,39.265,0,0,0-.3-8.278l-.017-.173c0-.011,0-.022,0-.034-.289-1.951-1.34-2.6-2.156-2.56-.8.038-1.642.757-1.721,2.277a59.072,59.072,0,0,1-.862,7.546.733.733,0,0,0,1.443.264,60.407,60.407,0,0,0,.884-7.734c.034-.648.268-.887.325-.89h0c.1,0,.482.316.63,1.295l.016.156c.491,4.878.739,7.343-.369,11.5a73.152,73.152,0,0,1-4.6,5.969,44.928,44.928,0,0,0,2.375-6.931.734.734,0,0,0-1.422-.362,42.739,42.739,0,0,1-4.906,11.727q-.6.646-1.2,1.288c-.346.369-1.359,1.306-1.642,1.525l-7.016,5.44a4.467,4.467,0,0,0-1.8,4.486,5.442,5.442,0,0,0,3.091,3.814,5.2,5.2,0,0,0,.314,2.128A5.769,5.769,0,0,0,785.818,398h.035c2.62-.017,4.778-1.89,5.92-5.138a87.26,87.26,0,0,1,4.182-9.671,48.716,48.716,0,0,1,7.782-8.347.733.733,0,1,0-.971-1.1,52.137,52.137,0,0,0-7.548,7.961l-2.681-2.224c1.892-2.32,11.133-14.423,11.161-14.464,4.8-5.819,10.32-11.153,18.046-14.515-9.032,6.345-12.092,10.307-14.808,13.824-.43.558-.837,1.084-1.266,1.62a.733.733,0,0,0,1.086.981,29.918,29.918,0,0,1,10.339-6.079,38.718,38.718,0,0,1,4.3-1.308c-1.513,1.126-3.1,2.276-4.75,3.472-3.793,2.749-7.715,5.592-11.357,8.586a.733.733,0,1,0,.932,1.131c3.608-2.966,15.7-11.774,18.18-13.621a.787.787,0,0,0,.321-.772Zm-46.2,29.7A2.96,2.96,0,0,1,779.778,385l7.014-5.439c.114-.088.219-.171.32-.253l2.074,1.866a56.538,56.538,0,0,1-6.2,6.1,7.968,7.968,0,0,0-2.512,3.388,3.989,3.989,0,0,1-1.957-2.616Zm15.895-5.1a96.945,96.945,0,0,0-4.028,9.431c-.925,2.629-2.581,4.145-4.545,4.158h-.024a4.337,4.337,0,0,1-3.953-2.771c-.652-1.777.1-3.734,2.065-5.368a59.026,59.026,0,0,0,6.818-6.784l.012-.012c.01-.011.019-.023.029-.035q.41-.474.813-.953Zm2.38-11.4c-2.132,2.851-4.3,5.753-6.651,8.514l-1.949-1.754c.129-.133.264-.274.411-.431a100.7,100.7,0,0,0,9.966-12l.019-.028q.26-.381.515-.767a47.17,47.17,0,0,0,6.719-15.333c.058-.211.184-.294.256-.285s.189.191.2.555c.108,6.014-.877,9.72-3.756,14.117-2,2.425-3.869,4.929-5.723,7.41Zm0,0" transform="translate(-776.865 -347.999)" />
    </g>
</svg>